<mxfile host="app.diagrams.net" modified="2023-11-16T13:58:30.755Z" agent="Mozilla/5.0 (X11; Linux x86_64) AppleWebKit/537.36 (KHTML, like Gecko) Chrome/115.0.0.0 Safari/537.36" version="21.8.0" etag="j-4fwM05KQoB2s1jE2J8" type="github">
  <diagram name="Page-1" id="O-DtbCQS7p7k63Vlg2mI">
    <mxGraphModel>
      <root>
        <mxCell id="0" />
        <mxCell id="1" parent="0" />
      </root>
    </mxGraphModel>
  </diagram>
</mxfile>
